<?xml version="1.0" encoding="UTF-8" standalone="no"?>
<svg
   xmlns:dc="http://purl.org/dc/elements/1.1/"
   xmlns:cc="http://creativecommons.org/ns#"
   xmlns:rdf="http://www.w3.org/1999/02/22-rdf-syntax-ns#"
   xmlns:svg="http://www.w3.org/2000/svg"
   xmlns="http://www.w3.org/2000/svg"
   version="1.1"
   fill="#000000"
   preserveAspectRatio="xMidYMid meet"
   viewBox="0 0 20 20"
   height="20"
   width="20">
  <path
     id="search"
     d="m 13.435357,12.062946 h -0.722722 l -0.256252,-0.24703 A 5.918861,5.918861 0 0 0 13.892642,7.9462471 5.9463053,5.9463053 0 1 0 7.9463873,13.892548 c 1.472806,0 2.8267837,-0.53974 3.8696307,-1.436259 l 0.246803,0.256139 v 0.722702 l 4.57406,4.564932 1.363087,-1.363075 z m -5.4888947,0 c -2.277883,0 -4.116661,-1.838782 -4.116661,-4.1166729 0,-2.277895 1.838778,-4.116672 4.116661,-4.116672 2.2779217,0 4.1166987,1.838777 4.1166987,4.116672 0,2.2778909 -1.838777,4.1166729 -4.1166987,4.1166729 z" />
</svg>
